<?xml version="1.0" encoding="UTF-8"?>
<svg width="167px" height="167px" viewBox="0 0 167 167" version="1.1" xmlns="http://www.w3.org/2000/svg">
    <g id="spotify-logo" stroke="none" stroke-width="1" fill="none" fill-rule="evenodd">
        <circle id="bg" fill="#1DB954" cx="83.5" cy="83.5" r="83.5"/>
        <path d="M120.75,120.75 C97.5,134.25 65.25,132.5 38,120.75 C34.5,119 33.5,114.75 35.25,111.25 C37,107.75 41.25,106.75 44.75,108.5 C68.75,118.5 97.5,120.25 117.25,108.5 C120.75,106.75 125,107.75 126.75,111.25 C128.5,114 127.5,119 120.75,120.75 Z M130.75,99.25 C104.25,115.5 65.25,112 42,102.75 C37.75,100.25 36,95.25 38.5,91 C41,86.75 46,85 50.25,87.5 C69.5,95 104.25,98.5 126.75,84.75 C131,82.25 136,84 138.5,88.25 C141,92.5 135,96.75 130.75,99.25 Z M131.75,76.25 C100.75,94.25 58.5,92 34.5,81.25 C29.5,78.75 27.75,72.25 30.25,67.25 C32.75,62.25 39.25,60.5 44.25,63 C64.25,72 101.5,74 128.25,58.75 C133.25,56.25 139.75,58 142.25,63 C144.75,68 139.5,72.25 131.75,76.25 Z" id="icon" fill="#FFFFFF" fill-rule="nonzero"/>
    </g>
</svg>
